<svg width="549" height="112" viewBox="0 0 549 112" fill="none" xmlns="http://www.w3.org/2000/svg">
<g clip-path="url(#clip0_686_32)">
<g filter="url(#filter0_d_686_32)">
<path d="M16.98 30.32V27.8H42.18H67.38V28.16C67.44 28.34 67.86 31.97 68.64 39.05C69.42 46.13 69.84 49.76 69.9 49.94V50.3H67.65H65.4V49.94C65.34 49.76 65.25 49.1 65.13 47.96C64.35 41.66 62.76 37.55 60.36 35.63C59.46 34.85 58.32 34.25 56.94 33.83C55.08 33.17 51.57 32.84 46.41 32.84C45.69 32.84 44.82 32.84 43.8 32.84C39.36 32.9 36.99 33.08 36.69 33.38C36.57 33.5 36.51 37.28 36.51 44.72V55.88H40.74C43.8 55.82 45.48 55.76 45.78 55.7C48.12 55.28 49.68 54.29 50.46 52.73C51.06 51.47 51.39 49.64 51.45 47.24V45.35H53.7H55.95V58.4V71.45H53.7H51.45V69.56C51.39 67.16 51.06 65.33 50.46 64.07C49.68 62.51 48.12 61.52 45.78 61.1C45.48 61.04 43.8 60.98 40.74 60.92H36.51V72.08C36.51 79.52 36.57 83.27 36.69 83.33C37.05 83.69 39.33 83.9 43.53 83.96H48.03V86.48V89H46.95C47.01 89 44.25 88.94 38.67 88.82C33.87 88.76 29.37 88.76 25.17 88.82L17.97 89H16.98V86.48V83.96H19.5C23.7 83.96 25.92 83.75 26.16 83.33V33.47C25.92 33.05 23.7 32.84 19.5 32.84H16.98V30.32ZM93.5088 90.08C88.9488 90.08 85.2888 88.67 82.5288 85.85C79.8288 82.97 78.4788 78.8 78.4788 73.34C78.4788 69.38 79.0788 65.66 80.2788 62.18C81.5388 58.7 83.2788 55.61 85.4988 52.91C87.7188 50.21 90.2688 48.08 93.1488 46.52C96.0288 44.96 99.1488 44.18 102.509 44.18C105.629 44.18 108.329 44.78 110.609 45.98C112.949 47.18 114.719 48.77 115.919 50.75H116.279L117.989 45.26H123.569L114.839 89H109.169L109.889 82.34H109.529C107.249 84.68 104.699 86.57 101.879 88.01C99.1188 89.39 96.3288 90.08 93.5088 90.08ZM95.5788 84.32C97.9788 84.32 100.469 83.6 103.049 82.16C105.689 80.72 108.209 78.62 110.609 75.86L114.659 56.42C113.159 54.08 111.419 52.43 109.439 51.47C107.459 50.45 105.449 49.94 103.409 49.94C100.949 49.94 98.6088 50.57 96.3888 51.83C94.2288 53.03 92.3388 54.68 90.7188 56.78C89.0988 58.82 87.8388 61.19 86.9388 63.89C86.0388 66.59 85.5888 69.38 85.5888 72.26C85.5888 76.34 86.4888 79.37 88.2888 81.35C90.1488 83.33 92.5788 84.32 95.5788 84.32ZM155.664 90.08C151.404 90.08 147.414 89.39 143.694 88.01C139.974 86.63 136.794 85.04 134.154 83.24L137.574 78.38C140.094 80.18 142.884 81.62 145.944 82.7C149.004 83.78 152.544 84.32 156.564 84.32C160.284 84.32 163.044 83.63 164.844 82.25C166.704 80.87 167.634 79.28 167.634 77.48C167.634 76.64 167.454 75.86 167.094 75.14C166.794 74.42 166.164 73.73 165.204 73.07C164.304 72.41 162.954 71.78 161.154 71.18C159.354 70.58 156.954 69.98 153.954 69.38C148.254 68.18 143.964 66.56 141.084 64.52C138.264 62.48 136.854 59.84 136.854 56.6C136.854 53.06 138.384 50.12 141.444 47.78C144.504 45.38 149.034 44.18 155.034 44.18C158.394 44.18 161.634 44.75 164.754 45.89C167.874 46.97 170.514 48.26 172.674 49.76L169.074 54.53C167.094 53.09 164.844 51.98 162.324 51.2C159.804 50.36 157.164 49.94 154.404 49.94C151.884 49.94 149.874 50.24 148.374 50.84C146.934 51.38 145.884 52.13 145.224 53.09C144.624 54.05 144.324 55.1 144.324 56.24C144.324 58.1 145.314 59.57 147.294 60.65C149.334 61.67 152.574 62.63 157.014 63.53C161.874 64.55 165.594 65.69 168.174 66.95C170.814 68.21 172.614 69.65 173.574 71.27C174.594 72.89 175.104 74.81 175.104 77.03C175.104 79.43 174.354 81.62 172.854 83.6C171.354 85.52 169.164 87.08 166.284 88.28C163.404 89.48 159.864 90.08 155.664 90.08ZM188.119 39.5H201.979V27.89H210.799V39.5H229.339V47.42H210.799V73.07C210.799 74.27 210.949 75.5 211.249 76.76C211.549 77.96 212.209 78.95 213.229 79.73C214.309 80.51 215.929 80.9 218.089 80.9H229.069V89H213.499C210.259 89 207.799 88.25 206.119 86.75C204.499 85.19 203.389 83.21 202.789 80.81C202.249 78.35 201.979 75.77 201.979 73.07V47.42H188.119V39.5ZM314.724 89V36.26H295.284V29.96H341.724V36.26H322.284V89H314.724ZM365.179 90.08C360.619 90.08 356.959 88.67 354.199 85.85C351.499 82.97 350.149 78.8 350.149 73.34C350.149 69.38 350.749 65.66 351.949 62.18C353.209 58.7 354.949 55.61 357.169 52.91C359.389 50.21 361.939 48.08 364.819 46.52C367.699 44.96 370.819 44.18 374.179 44.18C377.299 44.18 379.999 44.78 382.279 45.98C384.619 47.18 386.389 48.77 387.589 50.75H387.949L389.659 45.26H395.239L386.509 89H380.839L381.559 82.34H381.199C378.919 84.68 376.369 86.57 373.549 88.01C370.789 89.39 367.999 90.08 365.179 90.08ZM367.249 84.32C369.649 84.32 372.139 83.6 374.719 82.16C377.359 80.72 379.879 78.62 382.279 75.86L386.329 56.42C384.829 54.08 383.089 52.43 381.109 51.47C379.129 50.45 377.119 49.94 375.079 49.94C372.619 49.94 370.279 50.57 368.059 51.83C365.899 53.03 364.009 54.68 362.389 56.78C360.769 58.82 359.509 61.19 358.609 63.89C357.709 66.59 357.259 69.38 357.259 72.26C357.259 76.34 358.159 79.37 359.959 81.35C361.819 83.33 364.249 84.32 367.249 84.32ZM428.234 90.08C426.074 90.08 423.764 89.57 421.304 88.55C418.904 87.47 416.684 86 414.644 84.14H414.374L413.744 89H407.804V24.92H415.184V42.38L414.914 50.84H415.184C417.164 48.8 419.444 47.18 422.024 45.98C424.664 44.78 427.274 44.18 429.854 44.18C433.814 44.18 437.144 45.11 439.844 46.97C442.544 48.77 444.584 51.35 445.964 54.71C447.344 58.01 448.034 61.91 448.034 66.41C448.034 71.39 447.104 75.65 445.244 79.19C443.444 82.73 441.044 85.43 438.044 87.29C435.044 89.15 431.774 90.08 428.234 90.08ZM427.064 83.87C429.584 83.87 431.834 83.18 433.814 81.8C435.854 80.42 437.444 78.44 438.584 75.86C439.784 73.22 440.384 70.1 440.384 66.5C440.384 63.32 439.964 60.53 439.124 58.13C438.284 55.67 436.964 53.78 435.164 52.46C433.364 51.08 430.994 50.39 428.054 50.39C426.074 50.39 423.974 50.93 421.754 52.01C419.594 53.03 417.404 54.68 415.184 56.96V78.74C417.284 80.6 419.384 81.92 421.484 82.7C423.644 83.48 425.504 83.87 427.064 83.87ZM471.758 82.43C471.758 83.81 472.418 84.62 473.738 84.86L475.628 85.22C476.948 85.46 477.608 86.15 477.608 87.29C477.608 88.43 476.858 89 475.358 89H458.168C456.668 89 455.918 88.43 455.918 87.29C455.918 86.21 456.608 85.52 457.988 85.22L459.968 84.86C461.288 84.62 461.948 83.81 461.948 82.43C462.008 80.51 462.038 78.59 462.038 76.67C462.098 74.75 462.128 72.83 462.128 70.91V36.53C462.128 35.15 461.438 34.37 460.058 34.19L457.358 33.83C455.978 33.65 455.288 33.02 455.288 31.94C455.288 30.86 455.948 30.14 457.268 29.78L469.148 26.72C469.448 26.6 469.688 26.54 469.868 26.54C470.108 26.54 470.348 26.54 470.588 26.54C471.008 26.54 471.278 26.6 471.398 26.72C471.758 26.96 471.938 27.68 471.938 28.88L471.668 39.32V70.91C471.668 72.83 471.668 74.75 471.668 76.67C471.728 78.59 471.758 80.51 471.758 82.43ZM503.89 90.08C500.11 90.08 496.81 89.36 493.99 87.92C491.23 86.48 489.07 84.35 487.51 81.53C486.01 78.71 485.26 75.26 485.26 71.18C485.26 67.22 485.92 63.62 487.24 60.38C488.62 57.08 490.45 54.23 492.73 51.83C495.07 49.37 497.74 47.48 500.74 46.16C503.74 44.84 506.89 44.18 510.19 44.18C515.53 44.18 519.64 45.77 522.52 48.95C525.4 52.13 526.84 56.15 526.84 61.01C526.84 62.51 526.69 64.04 526.39 65.6C526.15 67.16 525.91 68.24 525.67 68.84H490.57L491.47 63.44H522.7L519.82 64.79C520 64.13 520.12 63.47 520.18 62.81C520.3 62.09 520.36 61.4 520.36 60.74C520.36 57.32 519.4 54.62 517.48 52.64C515.62 50.66 513.07 49.67 509.83 49.67C507.73 49.67 505.63 50.18 503.53 51.2C501.43 52.22 499.51 53.66 497.77 55.52C496.09 57.38 494.71 59.6 493.63 62.18C492.61 64.76 492.1 67.64 492.1 70.82C492.1 73.76 492.64 76.25 493.72 78.29C494.8 80.33 496.33 81.89 498.31 82.97C500.29 84.05 502.6 84.59 505.24 84.59C508.12 84.59 510.82 84.05 513.34 82.97C515.86 81.89 518.14 80.54 520.18 78.92L522.79 83.6C520.57 85.34 517.81 86.87 514.51 88.19C511.27 89.45 507.73 90.08 503.89 90.08Z" fill="white"/>
</g>
</g>
<defs>
<filter id="filter0_d_686_32" x="6.18047" y="14.1199" width="531.459" height="86.7602" filterUnits="userSpaceOnUse" color-interpolation-filters="sRGB">
<feFlood flood-opacity="0" result="BackgroundImageFix"/>
<feColorMatrix in="SourceAlpha" type="matrix" values="0 0 0 0 0 0 0 0 0 0 0 0 0 0 0 0 0 0 127 0" result="hardAlpha"/>
<feOffset/>
<feGaussianBlur stdDeviation="5.4"/>
<feComposite in2="hardAlpha" operator="out"/>
<feColorMatrix type="matrix" values="0 0 0 0 0 0 0 0 0 0 0 0 0 0 0 0 0 0 0.6 0"/>
<feBlend mode="normal" in2="BackgroundImageFix" result="effect1_dropShadow_686_32"/>
<feBlend mode="normal" in="SourceGraphic" in2="effect1_dropShadow_686_32" result="shape"/>
</filter>
<clipPath id="clip0_686_32">
<rect width="549" height="112" fill="white"/>
</clipPath>
</defs>
</svg>
