<svg width="100" height="100" viewBox="0 0 100 100" fill="none" xmlns="http://www.w3.org/2000/svg">
<path fill-rule="evenodd" clip-rule="evenodd" d="M26.102 25.1046C21.611 29.5957 21.6111 36.8771 26.1021 41.3681L34.2339 49.4997L26.1023 57.6315C21.6113 62.1226 21.6114 69.404 26.1024 73.895C30.5935 78.386 37.8749 78.3859 42.3659 73.8948L50.4975 65.763L58.6293 73.8947C63.1204 78.3857 70.4018 78.3856 74.8928 73.8946C79.3838 69.4035 79.3837 62.1221 74.8927 57.6311L66.7609 49.4994L74.8925 41.3676C79.3835 36.8766 79.3834 29.5952 74.8924 25.1042C70.4013 20.6132 63.1199 20.6133 58.6289 25.1043L50.4973 33.2361L42.3655 25.1045C37.8744 20.6135 30.593 20.6135 26.102 25.1046Z" fill="white"/>
</svg>
