<svg width="186" height="40" viewBox="0 0 186 40" fill="none" xmlns="http://www.w3.org/2000/svg">
<g clip-path="url(#clip0_728_32)">
<ellipse cx="22.7498" cy="24.6433" rx="14.1942" ry="14.7506" transform="rotate(75.6926 22.7498 24.6433)" fill="#DADADA"/>
<path d="M19.4283 6.37369C19.1191 5.16126 19.8521 3.91033 21.0963 3.77744C22.4019 3.638 23.7227 3.66143 25.0282 3.84937C27.0831 4.14522 29.0597 4.84292 30.845 5.90264C32.6302 6.96236 34.1893 8.36334 35.4332 10.0256C36.6771 11.6879 37.5813 13.5788 38.0944 15.5906C38.6075 17.6023 38.7193 19.6954 38.4234 21.7503C38.1276 23.8053 37.4299 25.7818 36.3701 27.5671C35.3104 29.3524 33.9094 30.9115 32.2472 32.1553C31.1912 32.9455 30.0429 33.5987 28.83 34.1015C27.6741 34.5807 26.4315 33.8337 26.1223 32.6212V32.6212C25.8131 31.4088 26.5606 30.1949 27.687 29.65C28.3351 29.3365 28.9532 28.9609 29.5324 28.5274C30.7183 27.6401 31.7177 26.5279 32.4737 25.2542C33.2297 23.9806 33.7274 22.5706 33.9385 21.1046C34.1495 19.6387 34.0698 18.1455 33.7038 16.7103C33.3378 15.2752 32.6927 13.9262 31.8053 12.7403C30.918 11.5545 29.8057 10.5551 28.5321 9.79907C27.2585 9.04308 25.8485 8.54535 24.3825 8.33429C23.6664 8.2312 22.9439 8.19749 22.2248 8.23264C20.9751 8.29371 19.7375 7.58613 19.4283 6.37369V6.37369Z" fill="white"/>
<rect x="32.2461" width="3.91565" height="7.53762" rx="1.95782" transform="rotate(34.7036 32.2461 0)" fill="white"/>
<path d="M22.5716 33.4962C22.8808 34.7087 22.1477 35.9596 20.9036 36.0925C19.598 36.2319 18.2771 36.2085 16.9717 36.0205C14.9167 35.7247 12.9402 35.027 11.1549 33.9673C9.36961 32.9076 7.81052 31.5066 6.56666 29.8443C5.3228 28.1821 4.41852 26.2911 3.90546 24.2794C3.3924 22.2676 3.2806 20.1745 3.57645 18.1196C3.8723 16.0647 4.57 14.0881 5.62972 12.3028C6.68944 10.5175 8.09042 8.95844 9.75268 7.71458C10.8087 6.92439 11.957 6.27124 13.1699 5.76838C14.3257 5.28918 15.5683 6.03626 15.8775 7.24869V7.24869C16.1867 8.46113 15.4392 9.67497 14.3129 10.2199C13.6648 10.5334 13.0466 10.909 12.4674 11.3425C11.2816 12.2298 10.2821 13.3421 9.52615 14.6157C8.77016 15.8893 8.27243 17.2993 8.06137 18.7653C7.85031 20.2313 7.93007 21.7244 8.29608 23.1596C8.66209 24.5947 9.30719 25.9437 10.1946 27.1296C11.0819 28.3154 12.1941 29.3149 13.4678 30.0708C14.7414 30.8268 16.1514 31.3246 17.6174 31.5356C18.3334 31.6387 19.0559 31.6724 19.775 31.6373C21.0248 31.5762 22.2623 32.2838 22.5716 33.4962V33.4962Z" fill="white"/>
<circle cx="3.5" cy="24.7812" r="2.5" fill="white"/>
<path d="M47.528 14.352V13.68H54.248H60.968V13.776C60.984 13.824 61.096 14.792 61.304 16.68C61.512 18.568 61.624 19.536 61.64 19.584V19.68H61.04H60.44V19.584C60.424 19.536 60.4 19.36 60.368 19.056C60.16 17.376 59.736 16.28 59.096 15.768C58.856 15.56 58.552 15.4 58.184 15.288C57.688 15.112 56.752 15.024 55.376 15.024C55.184 15.024 54.952 15.024 54.68 15.024C53.496 15.04 52.864 15.088 52.784 15.168C52.752 15.2 52.736 16.208 52.736 18.192V21.168H53.864C54.68 21.152 55.128 21.136 55.208 21.12C55.832 21.008 56.248 20.744 56.456 20.328C56.616 19.992 56.704 19.504 56.72 18.864V18.36H57.32H57.92V21.84V25.32H57.32H56.72V24.816C56.704 24.176 56.616 23.688 56.456 23.352C56.248 22.936 55.832 22.672 55.208 22.56C55.128 22.544 54.68 22.528 53.864 22.512H52.736V25.488C52.736 27.472 52.752 28.472 52.784 28.488C52.88 28.584 53.488 28.64 54.608 28.656H55.808V29.328V30H55.52C55.536 30 54.8 29.984 53.312 29.952C52.032 29.936 50.832 29.936 49.712 29.952L47.792 30H47.528V29.328V28.656H48.2C49.32 28.656 49.912 28.6 49.976 28.488V15.192C49.912 15.08 49.32 15.024 48.2 15.024H47.528V14.352ZM67.9357 30.288C66.7197 30.288 65.7437 29.912 65.0077 29.16C64.2877 28.392 63.9277 27.28 63.9277 25.824C63.9277 24.768 64.0877 23.776 64.4077 22.848C64.7437 21.92 65.2077 21.096 65.7997 20.376C66.3917 19.656 67.0717 19.088 67.8397 18.672C68.6077 18.256 69.4397 18.048 70.3357 18.048C71.1677 18.048 71.8877 18.208 72.4957 18.528C73.1197 18.848 73.5917 19.272 73.9117 19.8H74.0077L74.4637 18.336H75.9517L73.6237 30H72.1117L72.3037 28.224H72.2077C71.5997 28.848 70.9197 29.352 70.1677 29.736C69.4317 30.104 68.6877 30.288 67.9357 30.288ZM68.4877 28.752C69.1277 28.752 69.7917 28.56 70.4797 28.176C71.1837 27.792 71.8557 27.232 72.4957 26.496L73.5757 21.312C73.1757 20.688 72.7117 20.248 72.1837 19.992C71.6557 19.72 71.1197 19.584 70.5757 19.584C69.9197 19.584 69.2957 19.752 68.7037 20.088C68.1277 20.408 67.6237 20.848 67.1917 21.408C66.7597 21.952 66.4237 22.584 66.1837 23.304C65.9437 24.024 65.8237 24.768 65.8237 25.536C65.8237 26.624 66.0637 27.432 66.5437 27.96C67.0397 28.488 67.6877 28.752 68.4877 28.752ZM84.5103 30.288C83.3743 30.288 82.3103 30.104 81.3183 29.736C80.3263 29.368 79.4783 28.944 78.7743 28.464L79.6863 27.168C80.3583 27.648 81.1023 28.032 81.9183 28.32C82.7343 28.608 83.6783 28.752 84.7503 28.752C85.7423 28.752 86.4783 28.568 86.9583 28.2C87.4543 27.832 87.7023 27.408 87.7023 26.928C87.7023 26.704 87.6543 26.496 87.5583 26.304C87.4783 26.112 87.3103 25.928 87.0543 25.752C86.8143 25.576 86.4543 25.408 85.9743 25.248C85.4943 25.088 84.8543 24.928 84.0543 24.768C82.5343 24.448 81.3903 24.016 80.6223 23.472C79.8703 22.928 79.4943 22.224 79.4943 21.36C79.4943 20.416 79.9023 19.632 80.7183 19.008C81.5343 18.368 82.7423 18.048 84.3423 18.048C85.2383 18.048 86.1023 18.2 86.9343 18.504C87.7663 18.792 88.4703 19.136 89.0463 19.536L88.0863 20.808C87.5583 20.424 86.9583 20.128 86.2863 19.92C85.6143 19.696 84.9103 19.584 84.1743 19.584C83.5023 19.584 82.9663 19.664 82.5663 19.824C82.1823 19.968 81.9023 20.168 81.7263 20.424C81.5663 20.68 81.4863 20.96 81.4863 21.264C81.4863 21.76 81.7503 22.152 82.2783 22.44C82.8223 22.712 83.6863 22.968 84.8703 23.208C86.1663 23.48 87.1583 23.784 87.8463 24.12C88.5503 24.456 89.0303 24.84 89.2863 25.272C89.5583 25.704 89.6943 26.216 89.6943 26.808C89.6943 27.448 89.4943 28.032 89.0943 28.56C88.6943 29.072 88.1103 29.488 87.3423 29.808C86.5743 30.128 85.6303 30.288 84.5103 30.288ZM93.1649 16.8H96.8609V13.704H99.2129V16.8H104.157V18.912H99.2129V25.752C99.2129 26.072 99.2529 26.4 99.3329 26.736C99.4129 27.056 99.5889 27.32 99.8609 27.528C100.149 27.736 100.581 27.84 101.157 27.84H104.085V30H99.9329C99.0689 30 98.4129 29.8 97.9649 29.4C97.5329 28.984 97.2369 28.456 97.0769 27.816C96.9329 27.16 96.8609 26.472 96.8609 25.752V18.912H93.1649V16.8ZM126.926 30V15.936H121.742V14.256H134.126V15.936H128.942V30H126.926ZM140.381 30.288C139.165 30.288 138.189 29.912 137.453 29.16C136.733 28.392 136.373 27.28 136.373 25.824C136.373 24.768 136.533 23.776 136.853 22.848C137.189 21.92 137.653 21.096 138.245 20.376C138.837 19.656 139.517 19.088 140.285 18.672C141.053 18.256 141.885 18.048 142.781 18.048C143.613 18.048 144.333 18.208 144.941 18.528C145.565 18.848 146.037 19.272 146.357 19.8H146.453L146.909 18.336H148.397L146.069 30H144.557L144.749 28.224H144.653C144.045 28.848 143.365 29.352 142.613 29.736C141.877 30.104 141.133 30.288 140.381 30.288ZM140.933 28.752C141.573 28.752 142.237 28.56 142.925 28.176C143.629 27.792 144.301 27.232 144.941 26.496L146.021 21.312C145.621 20.688 145.157 20.248 144.629 19.992C144.101 19.72 143.565 19.584 143.021 19.584C142.365 19.584 141.741 19.752 141.149 20.088C140.573 20.408 140.069 20.848 139.637 21.408C139.205 21.952 138.869 22.584 138.629 23.304C138.389 24.024 138.269 24.768 138.269 25.536C138.269 26.624 138.509 27.432 138.989 27.96C139.485 28.488 140.133 28.752 140.933 28.752ZM157.196 30.288C156.62 30.288 156.004 30.152 155.348 29.88C154.708 29.592 154.116 29.2 153.572 28.704H153.5L153.332 30H151.748V12.912H153.716V17.568L153.644 19.824H153.716C154.244 19.28 154.852 18.848 155.54 18.528C156.244 18.208 156.94 18.048 157.628 18.048C158.684 18.048 159.572 18.296 160.292 18.792C161.012 19.272 161.556 19.96 161.924 20.856C162.292 21.736 162.476 22.776 162.476 23.976C162.476 25.304 162.228 26.44 161.732 27.384C161.252 28.328 160.612 29.048 159.812 29.544C159.012 30.04 158.14 30.288 157.196 30.288ZM156.884 28.632C157.556 28.632 158.156 28.448 158.684 28.08C159.228 27.712 159.652 27.184 159.956 26.496C160.276 25.792 160.436 24.96 160.436 24C160.436 23.152 160.324 22.408 160.1 21.768C159.876 21.112 159.524 20.608 159.044 20.256C158.564 19.888 157.932 19.704 157.148 19.704C156.62 19.704 156.06 19.848 155.468 20.136C154.892 20.408 154.308 20.848 153.716 21.456V27.264C154.276 27.76 154.836 28.112 155.396 28.32C155.972 28.528 156.468 28.632 156.884 28.632ZM168.802 28.248C168.802 28.616 168.978 28.832 169.33 28.896L169.834 28.992C170.186 29.056 170.362 29.24 170.362 29.544C170.362 29.848 170.162 30 169.762 30H165.178C164.778 30 164.578 29.848 164.578 29.544C164.578 29.256 164.762 29.072 165.13 28.992L165.658 28.896C166.01 28.832 166.186 28.616 166.186 28.248C166.202 27.736 166.21 27.224 166.21 26.712C166.226 26.2 166.234 25.688 166.234 25.176V16.008C166.234 15.64 166.05 15.432 165.682 15.384L164.962 15.288C164.594 15.24 164.41 15.072 164.41 14.784C164.41 14.496 164.586 14.304 164.938 14.208L168.106 13.392C168.186 13.36 168.25 13.344 168.298 13.344C168.362 13.344 168.426 13.344 168.49 13.344C168.602 13.344 168.674 13.36 168.706 13.392C168.802 13.456 168.85 13.648 168.85 13.968L168.778 16.752V25.176C168.778 25.688 168.778 26.2 168.778 26.712C168.794 27.224 168.802 27.736 168.802 28.248ZM177.371 30.288C176.363 30.288 175.483 30.096 174.731 29.712C173.995 29.328 173.419 28.76 173.003 28.008C172.603 27.256 172.403 26.336 172.403 25.248C172.403 24.192 172.579 23.232 172.931 22.368C173.299 21.488 173.787 20.728 174.395 20.088C175.019 19.432 175.731 18.928 176.531 18.576C177.331 18.224 178.171 18.048 179.051 18.048C180.475 18.048 181.571 18.472 182.339 19.32C183.107 20.168 183.491 21.24 183.491 22.536C183.491 22.936 183.451 23.344 183.371 23.76C183.307 24.176 183.243 24.464 183.179 24.624H173.819L174.059 23.184H182.387L181.619 23.544C181.667 23.368 181.699 23.192 181.715 23.016C181.747 22.824 181.763 22.64 181.763 22.464C181.763 21.552 181.507 20.832 180.995 20.304C180.499 19.776 179.819 19.512 178.955 19.512C178.395 19.512 177.835 19.648 177.275 19.92C176.715 20.192 176.203 20.576 175.739 21.072C175.291 21.568 174.923 22.16 174.635 22.848C174.363 23.536 174.227 24.304 174.227 25.152C174.227 25.936 174.371 26.6 174.659 27.144C174.947 27.688 175.355 28.104 175.883 28.392C176.411 28.68 177.027 28.824 177.731 28.824C178.499 28.824 179.219 28.68 179.891 28.392C180.563 28.104 181.171 27.744 181.715 27.312L182.411 28.56C181.819 29.024 181.083 29.432 180.203 29.784C179.339 30.12 178.395 30.288 177.371 30.288Z" fill="white"/>
</g>
<defs>
<clipPath id="clip0_728_32">
<rect width="186" height="40" fill="white"/>
</clipPath>
</defs>
</svg>
