<svg width="43" height="40" viewBox="0 0 43 40" fill="none" xmlns="http://www.w3.org/2000/svg">
<g clip-path="url(#clip0_737_40)">
<ellipse cx="22.7498" cy="24.6433" rx="14.1942" ry="14.7506" transform="rotate(75.6926 22.7498 24.6433)" fill="#DADADA"/>
<path d="M19.4283 6.37369C19.1191 5.16126 19.8521 3.91033 21.0963 3.77744C22.4019 3.638 23.7227 3.66143 25.0282 3.84937C27.0831 4.14522 29.0597 4.84292 30.845 5.90264C32.6302 6.96236 34.1893 8.36334 35.4332 10.0256C36.6771 11.6879 37.5813 13.5788 38.0944 15.5906C38.6075 17.6023 38.7193 19.6954 38.4234 21.7503C38.1276 23.8053 37.4299 25.7818 36.3701 27.5671C35.3104 29.3524 33.9094 30.9115 32.2472 32.1553C31.1912 32.9455 30.0429 33.5987 28.83 34.1015C27.6741 34.5807 26.4315 33.8337 26.1223 32.6212V32.6212C25.8131 31.4088 26.5606 30.1949 27.687 29.65C28.3351 29.3365 28.9532 28.9609 29.5324 28.5274C30.7183 27.6401 31.7177 26.5279 32.4737 25.2542C33.2297 23.9806 33.7274 22.5706 33.9385 21.1046C34.1495 19.6387 34.0698 18.1455 33.7038 16.7103C33.3378 15.2752 32.6927 13.9262 31.8053 12.7403C30.918 11.5545 29.8057 10.5551 28.5321 9.79907C27.2585 9.04308 25.8485 8.54535 24.3825 8.33429C23.6664 8.2312 22.9439 8.19749 22.2248 8.23264C20.9751 8.29371 19.7375 7.58613 19.4283 6.37369V6.37369Z" fill="white"/>
<rect x="32.2461" width="3.91565" height="7.53762" rx="1.95782" transform="rotate(34.7036 32.2461 0)" fill="white"/>
<path d="M22.5716 33.4962C22.8808 34.7087 22.1477 35.9596 20.9036 36.0925C19.598 36.2319 18.2771 36.2085 16.9717 36.0205C14.9167 35.7247 12.9402 35.027 11.1549 33.9673C9.36961 32.9076 7.81052 31.5066 6.56666 29.8443C5.3228 28.1821 4.41852 26.2911 3.90546 24.2794C3.3924 22.2676 3.2806 20.1745 3.57645 18.1196C3.8723 16.0647 4.57 14.0881 5.62972 12.3028C6.68944 10.5175 8.09042 8.95844 9.75268 7.71458C10.8087 6.92439 11.957 6.27124 13.1699 5.76838C14.3257 5.28918 15.5683 6.03626 15.8775 7.24869V7.24869C16.1867 8.46113 15.4392 9.67497 14.3129 10.2199C13.6648 10.5334 13.0466 10.909 12.4674 11.3425C11.2816 12.2298 10.2821 13.3421 9.52615 14.6157C8.77016 15.8893 8.27243 17.2993 8.06137 18.7653C7.85031 20.2313 7.93007 21.7244 8.29608 23.1596C8.66209 24.5947 9.30719 25.9437 10.1946 27.1296C11.0819 28.3154 12.1941 29.3149 13.4678 30.0708C14.7414 30.8268 16.1514 31.3246 17.6174 31.5356C18.3334 31.6387 19.0559 31.6724 19.775 31.6373C21.0248 31.5762 22.2623 32.2838 22.5716 33.4962V33.4962Z" fill="white"/>
<circle cx="3.5" cy="24.7812" r="2.5" fill="white"/>
</g>
<defs>
<clipPath id="clip0_737_40">
<rect width="43" height="40" fill="white"/>
</clipPath>
</defs>
</svg>
