<svg width="51" height="51" viewBox="0 0 51 51" fill="none" xmlns="http://www.w3.org/2000/svg">
<rect x="24.8047" y="29.3242" width="8" height="17" rx="4" transform="rotate(-30.044 24.8047 29.3242)" fill="#AEAEAE"/>
<path d="M37.1313 14.6858C40.8642 21.1399 38.6582 29.398 32.2041 33.1309C25.75 36.8638 17.4919 34.6578 13.759 28.2037C10.0261 21.7496 12.2321 13.4915 18.6862 9.7586C25.1402 6.02572 33.3984 8.23169 37.1313 14.6858ZM20.2759 24.4345C21.9271 27.2893 25.58 28.2651 28.4349 26.6139C31.2897 24.9628 32.2655 21.3099 30.6143 18.455C28.9631 15.6002 25.3103 14.6244 22.4554 16.2756C19.6005 17.9267 18.6248 21.5796 20.2759 24.4345Z" fill="#AEAEAE"/>
</svg>
