<svg width="917" height="516" viewBox="0 0 917 516" fill="none" xmlns="http://www.w3.org/2000/svg">
<g clip-path="url(#clip0_684_30)">
<circle cx="57.5" cy="57.5" r="57.5" fill="white" fill-opacity="0.04"/>
<circle cx="191.5" cy="57.5" r="57.5" fill="white" fill-opacity="0.13"/>
<ellipse cx="325" cy="57.5" rx="58" ry="57.5" fill="white" fill-opacity="0.4"/>
<circle cx="458.5" cy="57.5" r="57.5" fill="white" fill-opacity="0.8"/>
<ellipse cx="592" cy="57.5" rx="58" ry="57.5" fill="white"/>
<circle cx="725.5" cy="57.5" r="57.5" fill="white" fill-opacity="0.8"/>
<circle cx="859.5" cy="57.5" r="57.5" fill="white" fill-opacity="0.5"/>
<circle cx="57.5" cy="191.5" r="57.5" fill="white" fill-opacity="0.13"/>
<circle cx="191.5" cy="191.5" r="57.5" fill="white" fill-opacity="0.4"/>
<ellipse cx="325" cy="191.5" rx="58" ry="57.5" fill="white" fill-opacity="0.92"/>
<circle cx="458.5" cy="191.5" r="57.5" fill="white"/>
<ellipse cx="592" cy="191.5" rx="58" ry="57.5" fill="white" fill-opacity="0.7"/>
<circle cx="725.5" cy="191.5" r="57.5" fill="white" fill-opacity="0.82"/>
<circle cx="859.5" cy="191.5" r="57.5" fill="white" fill-opacity="0.4"/>
<circle cx="57.5" cy="324.5" r="57.5" fill="white" fill-opacity="0.4"/>
<circle cx="191.5" cy="324.5" r="57.5" fill="white" fill-opacity="0.8"/>
<ellipse cx="325" cy="324.5" rx="58" ry="57.5" fill="white" fill-opacity="0.67"/>
<circle cx="458.5" cy="324.5" r="57.5" fill="white"/>
<ellipse cx="592" cy="324.5" rx="58" ry="57.5" fill="white" fill-opacity="0.8"/>
<circle cx="725.5" cy="324.5" r="57.5" fill="white" fill-opacity="0.4"/>
<circle cx="859.5" cy="324.5" r="57.5" fill="white" fill-opacity="0.13"/>
<circle cx="57.5" cy="458.5" r="57.5" fill="white" fill-opacity="0.6"/>
<circle cx="191.5" cy="458.5" r="57.5" fill="white" fill-opacity="0.8"/>
<ellipse cx="325" cy="458.5" rx="58" ry="57.5" fill="white" fill-opacity="0.8"/>
<circle cx="458.5" cy="458.5" r="57.5" fill="white" fill-opacity="0.92"/>
<ellipse cx="592" cy="458.5" rx="58" ry="57.5" fill="white" fill-opacity="0.4"/>
<circle cx="725.5" cy="458.5" r="57.5" fill="white" fill-opacity="0.13"/>
<circle cx="859.5" cy="458.5" r="57.5" fill="white" fill-opacity="0.04"/>
</g>
<defs>
<clipPath id="clip0_684_30">
<rect width="917" height="516" fill="white"/>
</clipPath>
</defs>
</svg>
